<?xml version="1.0" encoding="UTF-8" standalone="no"?>
<svg
   xmlns:dc="http://purl.org/dc/elements/1.1/"
   xmlns:cc="http://creativecommons.org/ns#"
   xmlns:rdf="http://www.w3.org/1999/02/22-rdf-syntax-ns#"
   xmlns:svg="http://www.w3.org/2000/svg"
   xmlns="http://www.w3.org/2000/svg"
   viewBox="0 0 816 1056"
   height="1056"
   width="816"
   xml:space="preserve"
   id="svg2"
   version="1.1"><metadata
     id="metadata8"><rdf:RDF><cc:Work
         rdf:about=""><dc:format>image/svg+xml</dc:format><dc:type
           rdf:resource="http://purl.org/dc/dcmitype/StillImage" /></cc:Work></rdf:RDF></metadata><defs
     id="defs6"><clipPath
       id="clipPath20"
       clipPathUnits="userSpaceOnUse"><path
         id="path18"
         d="M 0,792 H 612 V 0 H 0 Z" /></clipPath><linearGradient
       id="linearGradient44"
       spreadMethod="pad"
       gradientTransform="matrix(0,204.64746,204.64746,0,305.99927,349.50772)"
       gradientUnits="userSpaceOnUse"
       y2="0"
       x2="1"
       y1="0"
       x1="0"><stop
         id="stop36"
         offset="0"
         style="stop-opacity:1;stop-color:#ffffff" /><stop
         id="stop38"
         offset="0.55638087"
         style="stop-opacity:1;stop-color:#ce6d9c" /><stop
         id="stop40"
         offset="0.997207"
         style="stop-opacity:1;stop-color:#ce6d9c" /><stop
         id="stop42"
         offset="1"
         style="stop-opacity:1;stop-color:#373535" /></linearGradient><clipPath
       id="clipPath54"
       clipPathUnits="userSpaceOnUse"><path
         id="path52"
         d="M 0,792 H 612 V 0 H 0 Z" /></clipPath><linearGradient
       id="linearGradient86"
       spreadMethod="pad"
       gradientTransform="matrix(0,-202.98302,-202.98302,0,305.99927,598.98303)"
       gradientUnits="userSpaceOnUse"
       y2="0"
       x2="1"
       y1="0"
       x1="0"><stop
         id="stop76"
         offset="0"
         style="stop-opacity:1;stop-color:#292929" /><stop
         id="stop78"
         offset="0.134078"
         style="stop-opacity:1;stop-color:#292929" /><stop
         id="stop80"
         offset="0.6156515"
         style="stop-opacity:1;stop-color:#ce6d9c" /><stop
         id="stop82"
         offset="0.997207"
         style="stop-opacity:1;stop-color:#ce6d9c" /><stop
         id="stop84"
         offset="1"
         style="stop-opacity:1;stop-color:#373535" /></linearGradient><linearGradient
       id="linearGradient108"
       spreadMethod="pad"
       gradientTransform="matrix(0,204.64746,204.64746,0,328.17923,15.238068)"
       gradientUnits="userSpaceOnUse"
       y2="0"
       x2="1"
       y1="0"
       x1="0"><stop
         id="stop102"
         offset="0"
         style="stop-opacity:1;stop-color:#ffffff" /><stop
         id="stop104"
         offset="0.5579392"
         style="stop-opacity:1;stop-color:#292929" /><stop
         id="stop106"
         offset="1"
         style="stop-opacity:1;stop-color:#292929" /></linearGradient><linearGradient
       id="linearGradient132"
       spreadMethod="pad"
       gradientTransform="matrix(284.43649,0,0,-284.43649,185.96098,184.26251)"
       gradientUnits="userSpaceOnUse"
       y2="0"
       x2="1"
       y1="0"
       x1="0"><stop
         id="stop124"
         offset="0"
         style="stop-opacity:1;stop-color:#ce6d9c" /><stop
         id="stop126"
         offset="0"
         style="stop-opacity:1;stop-color:#ce6d9c" /><stop
         id="stop128"
         offset="0.4420608"
         style="stop-opacity:1;stop-color:#ce6d9c" /><stop
         id="stop130"
         offset="1"
         style="stop-opacity:1;stop-color:#ce6d9c" /></linearGradient><linearGradient
       id="linearGradient154"
       spreadMethod="pad"
       gradientTransform="matrix(0,-202.98302,-202.98302,0,328.17923,262.77975)"
       gradientUnits="userSpaceOnUse"
       y2="0"
       x2="1"
       y1="0"
       x1="0"><stop
         id="stop148"
         offset="0"
         style="stop-opacity:1;stop-color:#ce6d9c" /><stop
         id="stop150"
         offset="0.57784889"
         style="stop-opacity:1;stop-color:#ce6d9c" /><stop
         id="stop152"
         offset="1"
         style="stop-opacity:1;stop-color:#292929" /></linearGradient></defs><g
     transform="matrix(1.3333333,0,0,-1.3333333,0,1056)"
     id="g10"><path
       id="path12"
       style="fill:#ffffff;fill-opacity:1;fill-rule:nonzero;stroke:none"
       d="M 0,0 H 612 V 792 H 0 Z" /><g
       id="g14"><g
         clip-path="url(#clipPath20)"
         id="g16"><path
           id="path22"
           style="fill:none;stroke:#373535;stroke-width:1;stroke-linecap:butt;stroke-linejoin:miter;stroke-miterlimit:10;stroke-dasharray:none;stroke-opacity:1"
           d="M 612,0 H 0 v 792 h 612 z" /></g></g><g
       id="g24"><g
         id="g26"><g
           id="g32"><g
             id="g34"><path
               id="path46"
               style="fill:url(#linearGradient44);stroke:none"
               d="M 411.419,501.521 305.353,395.456 199.287,501.521 c -16.812,16.813 -27.027,34.084 -31.943,50.532 v 0 c -9.004,-27.068 -1.834,-62.703 31.943,-96.479 v 0 L 305.353,349.508 411.419,455.574 c 34.821,34.822 42.354,71.232 33.257,98.581 v 0 c -5.035,-17.034 -15.66,-35.037 -33.257,-52.634" /></g></g></g></g><g
       id="g48"><g
         clip-path="url(#clipPath54)"
         id="g50"><g
           transform="translate(411.4189,502.0659)"
           id="g56"><path
             id="path58"
             style="fill:#292929;fill-opacity:1;fill-rule:nonzero;stroke:none"
             d="M 0,0 -106.066,-106.066 -212.132,0 c -92.211,92.211 13.855,198.277 106.066,106.066 C -11.686,200.447 94.381,94.381 0,0" /></g><g
           transform="translate(411.4189,502.0659)"
           id="g60"><path
             id="path62"
             style="fill:none;stroke:#373535;stroke-width:1;stroke-linecap:butt;stroke-linejoin:miter;stroke-miterlimit:10;stroke-dasharray:none;stroke-opacity:1"
             d="M 0,0 -106.066,-106.066 -212.132,0 c -92.211,92.211 13.855,198.277 106.066,106.066 C -11.686,200.447 94.381,94.381 0,0 Z" /></g></g></g><g
       id="g64"><g
         id="g66"><g
           id="g72"><g
             id="g74"><path
               id="path88"
               style="fill:url(#linearGradient86);stroke:none"
               d="m 305.341,562.185 c -58.434,58.433 -122.43,37.243 -138.008,-9.587 v 0 c 4.915,-16.447 15.13,-33.719 31.942,-50.532 v 0 L 305.341,396 411.407,502.066 c 17.597,17.597 28.223,35.599 33.259,52.634 v 0 c -8.763,26.346 -32.96,44.283 -63.066,44.283 v 0 c -23.346,0.001 -50.245,-10.785 -76.259,-36.798" /></g></g></g></g><g
       id="g90"><g
         id="g92"><g
           id="g98"><g
             id="g100"><path
               id="path110"
               style="fill:url(#linearGradient108);stroke:none"
               d="M 433.598,167.251 327.533,61.186 221.467,167.251 c -16.812,16.813 -27.027,34.085 -31.943,50.533 v 0 c -9.005,-27.07 -1.834,-62.703 31.943,-96.48 v 0 L 327.533,15.238 433.598,121.304 c 34.823,34.822 42.354,71.232 33.258,98.581 v 0 c -5.034,-17.033 -15.661,-35.037 -33.258,-52.634" /></g></g></g></g><g
       id="g112"><g
         id="g114"><g
           id="g120"><g
             id="g122"><path
               id="path134"
               style="fill:url(#linearGradient132);stroke:none"
               d="M 327.533,271.929 C 235.321,364.14 129.255,258.073 221.466,165.862 v 0 L 327.533,59.797 433.598,165.862 c 68.372,68.372 31.563,142.877 -29.804,142.866 v 0 c -23.344,-0.004 -50.253,-10.79 -76.261,-36.799" /></g></g></g></g><g
       id="g136"><g
         id="g138"><g
           id="g144"><g
             id="g146"><path
               id="path156"
               style="fill:url(#linearGradient154);stroke:none"
               d="m 327.522,225.981 c -58.435,58.434 -122.431,37.244 -138.009,-9.587 v 0 c 4.916,-16.446 15.13,-33.719 31.943,-50.532 v 0 L 327.522,59.797 433.588,165.862 c 17.596,17.598 28.222,35.6 33.257,52.634 v 0 c -8.762,26.347 -32.959,44.283 -63.065,44.284 v 0 c -23.346,0 -50.245,-10.785 -76.258,-36.799" /></g></g></g></g></g></svg>