<?xml version="1.0" encoding="utf-8"?>
<!-- Generator: Adobe Illustrator 24.1.1, SVG Export Plug-In . SVG Version: 6.00 Build 0)  -->
<svg version="1.1" id="Layer_1" xmlns="http://www.w3.org/2000/svg" xmlns:xlink="http://www.w3.org/1999/xlink" x="0px" y="0px"
	 viewBox="0 0 612 792" style="enable-background:new 0 0 612 792;" xml:space="preserve">
<style type="text/css">
	.st0{fill:#DE2C70;}
	.st1{fill:#FFFFFF;}
</style>
<circle class="st0" cx="258.11" cy="264.04" r="138.48"/>
<path class="st1" d="M341.34,255.17c0.24,1.12,0.35,2.27,0.35,3.46v21.97c0,8.9-6.71,16.17-14.91,16.17H306.5
	c-8.21,0-14.93-7.27-14.93-16.17v-7.45c-10.25,1.18-21.57,1.82-33.47,1.82c-11.86,0-23.14-0.64-33.36-1.81v7.44
	c0,8.9-6.71,16.17-14.91,16.17h-20.28c-8.21,0-14.93-7.27-14.93-16.17v-21.97c0-1.13,0.1-2.23,0.32-3.28
	c-0.29-0.72-0.42-1.45-0.42-2.19c0-12.06,37.42-21.82,83.59-21.82c46.17,0,83.6,9.77,83.6,21.82
	C341.71,253.83,341.59,254.5,341.34,255.17z"/>
</svg>
