<?xml version="1.0" encoding="utf-8"?>
<!-- Generator: Adobe Illustrator 24.1.1, SVG Export Plug-In . SVG Version: 6.00 Build 0)  -->
<svg version="1.1" id="Layer_1" xmlns="http://www.w3.org/2000/svg" xmlns:xlink="http://www.w3.org/1999/xlink" x="0px" y="0px"
	 viewBox="0 0 200 200" style="enable-background:new 0 0 200 200;" xml:space="preserve">
<style type="text/css">
	.st0{fill:url(#SVGID_1_);}
</style>
<linearGradient id="SVGID_1_" gradientUnits="userSpaceOnUse" x1="100" y1="62.5075" x2="100" y2="137.4924">
	<stop  offset="0" style="stop-color:#CC6699"/>
	<stop  offset="0" style="stop-color:#A9547F"/>
	<stop  offset="0" style="stop-color:#763B58"/>
	<stop  offset="0" style="stop-color:#4C2639"/>
	<stop  offset="0" style="stop-color:#2B1520"/>
	<stop  offset="0" style="stop-color:#130A0E"/>
	<stop  offset="0" style="stop-color:#050204"/>
	<stop  offset="0" style="stop-color:#000000"/>
</linearGradient>
<path class="st0" d="M135.91,126.3c1.34,1.69,0.54,3.86-1.78,4.83l-14.06,5.89c-2.32,0.97-5.31,0.39-6.65-1.29L100,118.86
	l-13.41,16.87c-1.34,1.69-4.33,2.27-6.65,1.29l-14.06-5.89c-2.32-0.97-3.12-3.14-1.78-4.83L85,100L64.09,73.7
	c-1.34-1.69-0.54-3.86,1.78-4.83l14.06-5.89c2.32-0.97,5.31-0.39,6.65,1.29L100,81.14l13.41-16.87c1.34-1.69,4.33-2.27,6.65-1.29
	l14.06,5.89c2.32,0.97,3.12,3.14,1.78,4.83L115,100L135.91,126.3z"/>
</svg>
